<svg xmlns="http://www.w3.org/2000/svg" version="1.1" xmlns:xlink="http://www.w3.org/1999/xlink" xmlns:svgjs="http://svgjs.dev/svgjs" width="1000" height="593" viewBox="0 0 1000 593"><g transform="matrix(1,0,0,1,-0.6060604625486121,-0.4819985415558108)"><svg viewBox="0 0 396 235" data-background-color="#6b6b6b" preserveAspectRatio="xMidYMid meet" height="593" width="1000" xmlns="http://www.w3.org/2000/svg" xmlns:xlink="http://www.w3.org/1999/xlink"><g id="tight-bounds" transform="matrix(1,0,0,1,0.24000005683080872,0.1910112264175723)"><svg viewBox="0 0 395.52 234.61797754716486" height="234.61797754716486" width="395.52"><g><svg viewBox="0 0 395.52 234.61797754716486" height="234.61797754716486" width="395.52"><g transform="matrix(1,0,0,1,0,145.00332253059358)"><svg viewBox="0 0 395.52 89.61465501657126" height="89.61465501657126" width="395.52"><g id="textblocktransform"><svg viewBox="0 0 395.52 89.61465501657126" height="89.61465501657126" width="395.52" id="textblock"><g><svg viewBox="0 0 395.52 89.61465501657126" height="89.61465501657126" width="395.52"><g transform="matrix(1,0,0,1,0,0)"><svg width="395.52" viewBox="1.9500000476837158 -37.400001525878906 165.9300079345703 37.60000228881836" height="89.61465501657126" data-palette-color="#ffdd80"><path d="M21.35-10.75Q20.15-8 18.68-5.98 17.2-3.95 15.58-2.58 13.95-1.2 12.3-0.55 10.65 0.1 9.1 0.1L9.1 0.1Q7.55 0.1 6.28-0.6 5-1.3 4.05-2.7 3.1-4.1 2.53-6.15 1.95-8.2 1.95-10.95L1.95-10.95Q1.95-15.65 3.25-20.23 4.55-24.8 6.9-28.45 9.25-32.1 12.48-34.33 15.7-36.55 19.6-36.55L19.6-36.55Q20.8-36.55 21.9-36.05 23-35.55 23.8-34.65 24.6-33.75 25.08-32.45 25.55-31.15 25.55-29.55L25.55-29.55Q25.55-29.25 25.55-28.93 25.55-28.6 25.5-28.25L25.5-28.25 18.95-26.5Q18.35-27.75 17.55-27.75L17.55-27.75Q16.75-27.75 15.88-26.83 15-25.9 14.15-24.43 13.3-22.95 12.5-21.13 11.7-19.3 11.1-17.45 10.5-15.6 10.13-13.93 9.75-12.25 9.75-11.2L9.75-11.2Q9.75-9.6 10.18-8.95 10.6-8.3 11.3-8.3L11.3-8.3Q11.85-8.3 12.55-8.72 13.25-9.15 13.85-9.83 14.45-10.5 14.95-11.35 15.45-12.2 15.65-13.05L15.65-13.05 21.35-10.75ZM28.85-1.5L21.15 0.1Q22.45-6.8 23.7-13.45L23.7-13.45Q24.15-16.25 24.7-19.28 25.25-22.3 25.75-25.25 26.25-28.2 26.7-30.98 27.15-33.75 27.5-36.05L27.5-36.05 35.6-36.6Q34.75-33.1 33.92-29.3 33.1-25.5 32.4-21.9L32.4-21.9 37.35-22.45Q38.05-26 38.6-29.33 39.15-32.65 40.05-36.2L40.05-36.2Q41.2-36.4 42.6-36.52 44-36.65 45.2-36.75 46.4-36.85 47.22-36.93 48.05-37 48.05-37L48.05-37Q47.35-34.75 46.72-32.08 46.1-29.4 45.5-26.53 44.9-23.65 44.35-20.7 43.8-17.75 43.35-15.1L43.35-15.1Q42.25-8.75 41.3-2.1L41.3-2.1 33.5-1.2Q34.15-4.2 34.65-7.05L34.65-7.05Q35.15-9.45 35.67-12.05 36.2-14.65 36.5-16.5L36.5-16.5 31.65-16.05Q31.3-14.15 30.82-11.65 30.35-9.15 29.95-6.9L29.95-6.9Q29.4-4.2 28.85-1.5L28.85-1.5ZM70.8-27.05Q70.8-22.95 69.92-19.33 69.05-15.7 67.59-12.68 66.15-9.65 64.22-7.28 62.3-4.9 60.2-3.23 58.09-1.55 55.95-0.68 53.8 0.2 51.84 0.2L51.84 0.2Q50.2 0.2 48.84-0.43 47.5-1.05 46.5-2.27 45.5-3.5 44.92-5.43 44.34-7.35 44.34-10.05L44.34-10.05Q44.34-12.85 45.05-15.95 45.75-19.05 46.95-22.1 48.15-25.15 49.9-27.9 51.65-30.65 53.75-32.77 55.84-34.9 58.25-36.15 60.65-37.4 63.25-37.4L63.25-37.4Q65.5-37.4 66.97-36.48 68.45-35.55 69.27-34.08 70.09-32.6 70.45-30.75 70.8-28.9 70.8-27.05L70.8-27.05ZM51.8-11.35Q51.8-10.8 52-10.2 52.2-9.6 52.55-9.15 52.9-8.7 53.42-8.38 53.95-8.05 54.55-8.05L54.55-8.05Q56.8-8.05 58.55-9.6 60.3-11.15 61.45-13.4 62.59-15.65 63.22-18.2 63.84-20.75 63.84-22.85L63.84-22.85Q63.84-23.45 63.77-24.15 63.7-24.85 63.47-25.45 63.25-26.05 62.77-26.48 62.3-26.9 61.5-26.9L61.5-26.9Q59.9-26.9 58.55-26.1 57.2-25.3 56.12-23.98 55.05-22.65 54.25-20.98 53.45-19.3 52.87-17.57 52.3-15.85 52.05-14.2 51.8-12.55 51.8-11.35L51.8-11.35ZM75.74-2.05L67.64 0.05Q68.99-6.6 70.24-12.95L70.24-12.95Q70.69-15.65 71.24-18.57 71.79-21.5 72.27-24.38 72.74-27.25 73.17-29.93 73.59-32.6 73.84-34.8L73.84-34.8Q76.69-35.7 79.99-36.13 83.29-36.55 86.54-36.55L86.54-36.55Q88.49-36.55 89.77-36.1 91.04-35.65 91.77-34.83 92.49-34 92.79-32.9 93.09-31.8 93.09-30.45L93.09-30.45Q93.09-28.45 92.39-26.53 91.69-24.6 90.52-22.88 89.34-21.15 87.82-19.73 86.29-18.3 84.54-17.4L84.54-17.4Q85.44-15.4 86.47-13.03 87.49-10.65 88.39-8.5L88.39-8.5Q89.39-6 90.44-3.5L90.44-3.5 82.69-0.8Q81.69-4.25 80.89-7.3L80.89-7.3Q80.54-8.55 80.19-9.88 79.84-11.2 79.54-12.38 79.24-13.55 79.04-14.45 78.84-15.35 78.79-15.85L78.79-15.85 78.14-15.65Q77.84-14.05 77.42-11.75 76.99-9.45 76.64-7.3L76.64-7.3Q76.19-4.75 75.74-2.05L75.74-2.05ZM80.99-29.6L79.39-21.65Q80.34-21.75 81.72-22.45 83.09-23.15 84.34-24.13 85.59-25.1 86.49-26.15 87.39-27.2 87.39-28L87.39-28Q87.39-28.55 87.04-28.88 86.69-29.2 86.07-29.38 85.44-29.55 84.69-29.6 83.94-29.65 83.14-29.65L83.14-29.65Q82.59-29.65 82.02-29.63 81.44-29.6 80.99-29.6L80.99-29.6ZM106.19-2.45L90.04 0.05 96.59-35.5 112.39-36.85Q112.04-35.75 111.79-34.6L111.79-34.6Q111.54-33.65 111.32-32.63 111.09-31.6 110.94-30.8L110.94-30.8Q110.44-30.75 109.52-30.73 108.59-30.7 107.54-30.68 106.49-30.65 105.42-30.65 104.34-30.65 103.54-30.65L103.54-30.65 101.79-21.7Q103.34-21.8 104.69-21.85L104.69-21.85Q105.79-21.9 106.94-21.9 108.09-21.9 108.64-21.95L108.64-21.95Q108.44-20.55 108.27-19.2 108.09-17.85 107.84-16.45L107.84-16.45Q107.34-16.4 106.22-16.38 105.09-16.35 103.94-16.3L103.94-16.3Q102.64-16.25 101.09-16.2L101.09-16.2 99.39-7 106.69-8.15 106.19-2.45ZM129.29-12.55Q129.29-10.5 128.44-8.75 127.59-7 126.14-5.58 124.69-4.15 122.76-3.08 120.84-2 118.71-1.28 116.59-0.55 114.36-0.18 112.14 0.2 110.09 0.2L110.09 0.2Q108.24 0.2 106.64-0.1L106.64-0.1Q109.04-8.85 110.46-17.73 111.89-26.6 113.19-35.6L113.19-35.6Q115.79-36.15 118.59-36.58 121.39-37 124.39-37L124.39-37Q125.64-37 127.04-36.7 128.44-36.4 129.59-35.6 130.74-34.8 131.51-33.5 132.29-32.2 132.29-30.2L132.29-30.2Q132.29-28.3 131.66-26.65 131.04-25 130.06-23.65 129.09-22.3 127.84-21.33 126.59-20.35 125.29-19.85L125.29-19.85Q125.94-19.5 126.64-18.85 127.34-18.2 127.94-17.32 128.54-16.45 128.91-15.25 129.29-14.05 129.29-12.55L129.29-12.55ZM117.84-17.75Q117.64-16.55 117.46-15.63 117.29-14.7 117.14-13.85 116.99-13 116.81-12.08 116.64-11.15 116.44-9.9L116.44-9.9Q117.39-10 118.59-10.25 119.79-10.5 120.89-11.03 121.99-11.55 122.74-12.43 123.49-13.3 123.49-14.55L123.49-14.55Q123.49-15.45 123.01-16.05 122.54-16.65 121.81-17.05 121.09-17.45 120.24-17.63 119.39-17.8 118.64-17.8L118.64-17.8Q118.39-17.8 118.21-17.8 118.04-17.8 117.84-17.75L117.84-17.75ZM120.09-29.85Q119.99-29.3 119.86-28.55 119.74-27.8 119.59-26.98 119.44-26.15 119.26-25.35 119.09-24.55 118.99-23.95L118.99-23.95Q120.09-24.15 121.19-24.5 122.29-24.85 123.16-25.28 124.04-25.7 124.56-26.2 125.09-26.7 125.09-27.3L125.09-27.3Q125.09-28.05 124.64-28.53 124.19-29 123.46-29.3 122.74-29.6 121.96-29.73 121.19-29.85 120.59-29.85L120.59-29.85 120.09-29.85ZM144.64-2.45L128.49 0.05 135.03-35.5 150.84-36.85Q150.49-35.75 150.24-34.6L150.24-34.6Q149.99-33.65 149.76-32.63 149.54-31.6 149.39-30.8L149.39-30.8Q148.89-30.75 147.96-30.73 147.03-30.7 145.99-30.68 144.94-30.65 143.86-30.65 142.78-30.65 141.99-30.65L141.99-30.65 140.24-21.7Q141.78-21.8 143.14-21.85L143.14-21.85Q144.24-21.9 145.39-21.9 146.53-21.9 147.09-21.95L147.09-21.95Q146.89-20.55 146.71-19.2 146.53-17.85 146.28-16.45L146.28-16.45Q145.78-16.4 144.66-16.38 143.53-16.35 142.39-16.3L142.39-16.3Q141.09-16.25 139.53-16.2L139.53-16.2 137.84-7 145.14-8.15 144.64-2.45ZM161.68-2.45L145.53 0.05 152.08-35.5 167.88-36.85Q167.53-35.75 167.28-34.6L167.28-34.6Q167.03-33.65 166.81-32.63 166.58-31.6 166.43-30.8L166.43-30.8Q165.93-30.75 165.01-30.73 164.08-30.7 163.03-30.68 161.98-30.65 160.91-30.65 159.83-30.65 159.03-30.65L159.03-30.65 157.28-21.7Q158.83-21.8 160.18-21.85L160.18-21.85Q161.28-21.9 162.43-21.9 163.58-21.9 164.13-21.95L164.13-21.95Q163.93-20.55 163.76-19.2 163.58-17.85 163.33-16.45L163.33-16.45Q162.83-16.4 161.71-16.38 160.58-16.35 159.43-16.3L159.43-16.3Q158.13-16.25 156.58-16.2L156.58-16.2 154.88-7 162.18-8.15 161.68-2.45Z" opacity="1" transform="matrix(1,0,0,1,0,0)" fill="#ffdd80" class="wordmark-text-0" data-fill-palette-color="primary" id="text-0"></path></svg></g></svg></g></svg></g></svg></g><g transform="matrix(1,0,0,1,113.14968417046956,0)"><svg viewBox="0 0 169.22063165906087 123.8474532329015" height="123.8474532329015" width="169.22063165906087"><g><svg xmlns="http://www.w3.org/2000/svg" xmlns:xlink="http://www.w3.org/1999/xlink" version="1.1" x="8" y="0" viewBox="3.844172954559326 10.83699893951416 74.12266540527344 59.91297149658203" enable-background="new 0 0 81.813 81.585" xml:space="preserve" height="123.8474532329015" width="153.22063165906087" class="icon-icon-0" data-fill-palette-color="accent" id="icon-0"><g fill="#ffdd80" data-fill-palette-color="accent"><path d="M65.038 22.279c0.091 0.312 0.228 0.609 0.287 0.929 0.146 0.632 0.34 1.251 0.445 1.893 0.088 0.639 0.23 1.274 0.277 1.922 0.034 0.647 0.128 1.292 0.118 1.937v0.971c-0.003 0.327 0.02 0.653-0.019 0.972-0.062 0.644-0.09 1.292-0.155 1.937l-0.287 1.922-0.024 0.156 0.165 0.031 2.318 0.461c0.199 0.031 0.37 0.125 0.561 0.181l0.549 0.203 1.105 0.396c0.196 0.05 0.355 0.171 0.53 0.259l0.517 0.28 1.038 0.564c0.178 0.093 0.317 0.23 0.477 0.343l0.468 0.368 0.935 0.723 0.121-0.137c-0.24-0.324-0.467-0.673-0.735-0.997-0.265-0.324-0.529-0.68-0.832-0.966-0.32-0.262-0.639-0.542-0.984-0.801l-0.511-0.383c-0.175-0.121-0.334-0.274-0.533-0.374-0.38-0.212-0.788-0.393-1.184-0.589l-0.614-0.29c-0.196-0.084-0.414-0.212-0.602-0.265l-0.841-0.234c0.037-0.212 0.078-0.424 0.115-0.636 0.097-0.686 0.146-1.377 0.178-2.075 0.028-0.336 0-0.685-0.003-1.031l-0.028-1.041c-0.037-0.692-0.184-1.374-0.274-2.063-0.09-0.681-0.336-1.344-0.505-2.006-0.181-0.665-0.479-1.302-0.744-1.934-0.266-0.635-0.664-1.237-1.004-1.827-0.178-0.287-0.401-0.533-0.604-0.802-0.212-0.265-0.442-0.514-0.657-0.778l-0.165 0.077c0.259 0.597 0.542 1.19 0.782 1.793L65.038 22.279z" fill="#ffdd80" data-fill-palette-color="accent"></path><path d="M77.913 47.755c-0.087-0.474-0.168-0.754-0.168-0.754l-0.175-0.037c0 0-0.053 0.255-0.146 0.704-0.04 0.225-0.137 0.474-0.224 0.772-0.088 0.299-0.247 0.617-0.393 0.966-0.162 0.35-0.362 0.717-0.599 1.085-0.243 0.367-0.518 0.741-0.838 1.097-0.321 0.354-0.674 0.704-1.06 1.028-0.384 0.33-0.801 0.616-1.228 0.903-0.863 0.548-1.795 0.984-2.698 1.321-0.465 0.131-0.897 0.299-1.331 0.386-0.433 0.1-0.838 0.193-1.222 0.237-0.383 0.068-0.729 0.124-1.043 0.149-0.318 0.025-0.577 0.063-0.811 0.063-0.458 0.019-0.714 0.024-0.714 0.024l0.004 0.188c0 0.006 0.258 0.118 0.713 0.286 0.228 0.088 0.552 0.162 0.869 0.225 0.34 0.081 0.727 0.149 1.15 0.162 0.844 0.087 1.845 0.006 2.897-0.218 0.518-0.156 1.084-0.256 1.596-0.512 0.529-0.218 1.04-0.511 1.558-0.797 0.489-0.343 0.966-0.698 1.393-1.098 0.228-0.181 0.415-0.398 0.599-0.629 0.184-0.225 0.377-0.437 0.532-0.673 0.343-0.437 0.586-0.935 0.795-1.396 0.222-0.467 0.353-0.935 0.442-1.364C78.001 49.027 77.994 48.223 77.913 47.755z" fill="#ffdd80" data-fill-palette-color="accent"></path><path d="M33.142 28.409l0.006 0.246c0 0.162 0.003 0.316 0.003 0.469 0.009 0.6 0.016 1.128 0.022 1.559 0.019 0.868 0.078 1.373 0.078 1.373l0.178 0.028c0 0 0.081-0.483 0.221-1.32 0.075-0.423 0.159-0.933 0.259-1.519 0.05-0.291 0.106-0.595 0.162-0.92 0.093-0.316 0.19-0.654 0.292-1.006 0.1-0.352 0.206-0.715 0.315-1.095 0.125-0.368 0.28-0.743 0.43-1.134 0.153-0.386 0.29-0.79 0.471-1.187 0.187-0.393 0.386-0.795 0.583-1.206 0.362-0.833 0.913-1.602 1.384-2.429 0.57-0.764 1.072-1.594 1.738-2.296 0.321-0.365 0.629-0.742 0.951-1.094 0.346-0.335 0.695-0.668 1.034-0.999 0.334-0.348 0.717-0.62 1.081-0.91 0.377-0.283 0.701-0.592 1.101-0.827 1.511-1.023 3.057-1.718 4.446-2.128 0.354-0.095 0.694-0.179 1.013-0.26 0.327-0.058 0.639-0.107 0.922-0.157 0.583-0.109 1.097-0.095 1.521-0.139 0.848 0.008 1.33 0.026 1.33 0.029l0.013-0.182c0 0-0.115-0.031-0.343-0.093-0.228-0.052-0.573-0.178-1.01-0.238-0.438-0.033-0.978-0.139-1.613-0.136-0.315 0-0.658-0.001-1.01-0.001-0.358 0.028-0.726 0.085-1.115 0.135-0.77 0.134-1.611 0.315-2.456 0.642-0.847 0.302-1.816 0.75-2.555 1.203l-0.302 0.167-0.35 0.24-0.617 0.432c-0.415 0.292-0.857 0.572-1.215 0.941-0.38 0.347-0.763 0.703-1.146 1.058-0.364 0.375-0.704 0.77-1.053 1.158-0.352 0.388-0.661 0.809-0.947 1.24-0.292 0.43-0.592 0.847-0.869 1.276-0.259 0.441-0.501 0.885-0.729 1.33-0.24 0.437-0.446 0.885-0.62 1.337-0.181 0.447-0.38 0.879-0.536 1.315-0.149 0.439-0.262 0.902-0.386 1.327-0.118 0.435-0.255 0.853-0.336 1.251-0.059 0.395-0.119 0.768-0.168 1.139-0.056 0.361-0.115 0.709-0.149 1.047l-0.006 0.033v0.014l-0.021 0.1v0.006l0.003 0.061V28.409z" fill="#ffdd80" data-fill-palette-color="accent"></path><path d="M37.454 29.179c-0.259 1.086-0.427 2.161-0.53 3.233 5.549-0.312 12.005 1.76 17.626 6.154 4.923 3.849 8.278 8.754 9.733 13.578 4.998 0.417 9.323-2.014 9.8-5.634 0.511-3.782-3.359-7.43-8.646-8.14-1.57-0.209-3.082-0.128-4.449 0.171 0.461-1.112 0.844-2.281 1.134-3.518 2.216-9.324-1.511-18.198-8.329-19.813C46.991 13.597 39.673 19.847 37.454 29.179z" fill="#ffdd80" data-fill-palette-color="accent"></path><path d="M45.493 50.741c0.224-0.306 0.464-0.599 0.694-0.892 0.156-0.199 0.312-0.386 0.471-0.573 2.271-2.754 4.745-5.06 7.263-6.773-1.34-1.217-2.845-2.339-4.474-3.336-1.303-0.797-2.624-1.489-3.961-2.065-3.138 2.109-6.216 5.098-8.902 8.785-0.277 0.367-0.551 0.748-0.822 1.141-0.125 0.187-0.252 0.38-0.374 0.579-0.028 0.037-0.053 0.081-0.081 0.118-0.234 0.361-0.477 0.724-0.708 1.091-0.302 0.499-0.592 1.01-0.872 1.508-0.38 0.68-0.742 1.358-1.075 2.038-1.929 3.913-3.128 7.84-3.577 11.447 1.119 0.929 2.328 1.808 3.627 2.599 1.636 1.01 3.309 1.832 4.995 2.486 0.508-3.826 1.851-8.014 4.02-12.157 0.38-0.717 0.778-1.446 1.212-2.169 0.093-0.156 0.174-0.312 0.274-0.468 0.604-0.979 1.236-1.913 1.894-2.811C45.232 51.108 45.363 50.916 45.493 50.741z" fill="#ffdd80" data-fill-palette-color="accent"></path><path d="M61.64 60.636c0.053-0.268 0.111-0.535 0.146-0.816 0.013-0.043 0.007-0.093 0.013-0.143 0.034-0.293 0.053-0.573 0.068-0.873 0-0.013 0.004-0.019 0.004-0.031 0.009-0.212 0.006-0.424 0.009-0.636-0.006-0.492-0.021-0.984-0.068-1.482-0.019-0.2-0.053-0.405-0.078-0.611-0.346-2.58-1.33-5.24-2.916-7.771-0.23-0.374-0.474-0.742-0.729-1.109-1.801 1.408-3.552 3.116-5.206 5.061-0.465 0.542-0.907 1.103-1.35 1.676-0.236 0.312-0.477 0.611-0.717 0.929-0.155 0.225-0.32 0.442-0.474 0.654-0.168 0.243-0.333 0.474-0.492 0.71-0.074 0.119-0.149 0.231-0.228 0.355-0.233 0.355-0.464 0.704-0.688 1.065-2.646 4.307-4.371 8.756-5.185 12.888 0.439 0.063 0.879 0.112 1.318 0.149 4.452 0.411 8.581-0.461 11.646-2.562 0.228-0.155 0.442-0.33 0.654-0.505l1.48 0.038 6.671 0.187-3.175-5.87L61.64 60.636z" fill="#ffdd80" data-fill-palette-color="accent"></path><path d="M30.656 43.05l-0.209-0.131 0.221 0.156C30.661 43.069 30.656 43.063 30.656 43.05z" fill="#ffdd80" data-fill-palette-color="accent"></path><path d="M30.546 42.783c0.003-0.006 0.006-0.013 0.009-0.019 0.137-0.193 0.268-0.388 0.405-0.575 0.302-0.405 0.623-0.791 0.935-1.184 1.86-2.331 3.864-4.365 5.927-6.007-2.699-0.33-5.288-0.181-7.615 0.408-0.178 0.047-0.349 0.097-0.527 0.146-0.366 0.106-0.729 0.212-1.083 0.34-0.203 0.071-0.393 0.159-0.589 0.24-0.072 0.031-0.144 0.056-0.212 0.087-0.042 0.019-0.081 0.037-0.117 0.053-0.502 0.218-0.997 0.452-1.463 0.726-0.189-0.573-0.444-1.134-0.781-1.67-1.159-1.851-2.986-3.026-4.971-3.421-1.075-3.169-3.543-8.112-8.915-10.837 0-0.701-0.351-1.388-0.989-1.784-0.988-0.6-2.278-0.298-2.885 0.691-0.603 0.986-0.293 2.279 0.69 2.881 0.812 0.5 1.829 0.371 2.5-0.242 4.381 2.278 6.632 6.287 7.735 9.15-0.464 0.019-0.926 0.084-1.385 0.193-2.114-2.347-5.143-4.646-9.204-5.406-0.073-0.606-0.407-1.183-0.977-1.536-0.984-0.603-2.273-0.29-2.879 0.688-0.606 0.989-0.299 2.279 0.687 2.887 0.883 0.539 2.008 0.346 2.669-0.408 3.392 0.597 6.021 2.441 7.948 4.419-0.194 0.097-0.389 0.206-0.575 0.324-3.579 2.25-7.499 8.762-5.249 12.346 1.767 2.805 6.795 2.961 10.614 1.813-0.109 3.521 1.129 7.316 3.482 10.837 0.836-4.057 2.547-8.419 5.138-12.638 0.017-0.024 0.031-0.043 0.048-0.068 0.489-0.798 1.003-1.552 1.527-2.3C30.475 42.876 30.512 42.827 30.546 42.783zM15.187 42.289c-1.052 0.214-2.082-0.467-2.293-1.523-0.216-1.053 3.599-1.829 3.814-0.77C16.921 41.04 16.241 42.074 15.187 42.289z" fill="#ffdd80" data-fill-palette-color="accent"></path></g></svg></g></svg></g><g><rect width="113.14968417046956" height="8.081542071718374" y="114.76591116118313" x="282.37031582953045" fill="#ffdd80" data-fill-palette-color="accent"></rect><rect width="113.14968417046956" height="8.081542071718374" y="114.76591116118313" x="0" fill="#ffdd80" data-fill-palette-color="accent"></rect><rect width="113.14968417046956" height="8.081542071718374" y="98.60282701774638" x="282.37031582953045" fill="#ffdd80" data-fill-palette-color="accent"></rect><rect width="113.14968417046956" height="8.081542071718374" y="98.60282701774638" x="0" fill="#ffdd80" data-fill-palette-color="accent"></rect></g></svg></g><defs></defs></svg><rect width="395.52" height="234.61797754716486" fill="none" stroke="none" visibility="hidden"></rect></g></svg></g></svg>